<svg xmlns="http://www.w3.org/2000/svg" width="14.47" height="18.331" viewBox="0 0 14.47 18.331">
  <path id="Trazado_275" data-name="Trazado 275" d="M22.855,19.995h1.3V17.788a4.288,4.288,0,0,1,8.576,0v2.207h1.3a1.627,1.627,0,0,1,1.63,1.63V30.2a1.627,1.627,0,0,1-1.63,1.63H22.83A1.627,1.627,0,0,1,21.2,30.2V21.625A1.665,1.665,0,0,1,22.855,19.995Zm9.128-2.207a3.536,3.536,0,0,0-7.072,0v2.207h7.072ZM21.977,30.2a.889.889,0,0,0,.878.878H34.04a.889.889,0,0,0,.878-.878V21.625a.889.889,0,0,0-.878-.878h-1.3v3.084h-.752V20.747H24.911v3.084h-.752V20.747h-1.3a.889.889,0,0,0-.878.878Z" transform="translate(-21.2 -13.5)" fill="#f8cfc9"/>
</svg>
