<svg xmlns="http://www.w3.org/2000/svg" width="51.888" height="16.758" viewBox="0 0 51.888 16.758">
  <path id="Logo_Visa" data-name="Logo Visa" d="M516.891,319.786,510.1,335.994h-4.432l-3.343-12.935a1.774,1.774,0,0,0-1-1.424,17.543,17.543,0,0,0-4.136-1.379l.1-.47h7.135a1.954,1.954,0,0,1,1.934,1.652l1.766,9.379,4.364-11.031ZM534.258,330.7c.019-4.277-5.915-4.513-5.874-6.425.013-.581.566-1.2,1.778-1.357a7.912,7.912,0,0,1,4.133.725l.737-3.437a11.27,11.27,0,0,0-3.923-.719c-4.144,0-7.061,2.2-7.085,5.357-.028,2.334,2.082,3.635,3.671,4.411,1.633.794,2.18,1.3,2.174,2.014-.012,1.088-1.3,1.567-2.51,1.586a8.769,8.769,0,0,1-4.306-1.024l-.759,3.552a12.7,12.7,0,0,0,4.663.861c4.4,0,7.286-2.175,7.3-5.546m10.944,5.292h3.878l-3.385-16.208h-3.579a1.908,1.908,0,0,0-1.785,1.189l-6.291,15.019h4.4l.875-2.421h5.379Zm-4.679-5.743,2.207-6.086L544,330.251Zm-17.64-10.465-3.467,16.208h-4.193l3.469-16.208Z" transform="translate(-497.191 -319.49)" fill="#fff"/>
</svg>
