<svg id="Grupo_25" data-name="Grupo 25" xmlns="http://www.w3.org/2000/svg" width="45.212" height="27.942" viewBox="0 0 45.212 27.942">
  <rect id="Rectángulo_13" data-name="Rectángulo 13" width="12.225" height="21.965" transform="translate(16.494 2.988)" fill="#ff5f00"/>
  <path id="Trazado_73" data-name="Trazado 73" d="M17.27,13.971A14.008,14.008,0,0,1,22.586,2.988a13.966,13.966,0,1,0-8.615,24.954,13.884,13.884,0,0,0,8.615-2.988A13.95,13.95,0,0,1,17.27,13.971Z" fill="#eb001b"/>
  <path id="Trazado_74" data-name="Trazado 74" d="M150.569,13.971a13.956,13.956,0,0,1-22.586,10.983,14,14,0,0,0,0-21.965,13.956,13.956,0,0,1,22.586,10.983Z" transform="translate(-105.358)" fill="#f79e1b"/>
</svg>
