<svg xmlns="http://www.w3.org/2000/svg" width="29.672" height="14.04" viewBox="0 0 29.672 14.04">
	<g id="Grupo_471" data-name="Grupo 471" transform="translate(48.023)">
		<g id="Grupo_344" data-name="Grupo 344" transform="translate(-48.023 0)">
			<path id="Trazado_60" data-name="Trazado 60" d="M40.508,36.714a.955.955,0,0,1-.776-.388l-9.2-11.685-6.483,8.036a1.938,1.938,0,0,1-2.834.233l-2.834-2.562-4.814,6.017a.967.967,0,1,1-1.514-1.2l4.775-6.017a1.98,1.98,0,0,1,2.873-.233l2.834,2.562,6.444-8.036a2,2,0,0,1,3.106,0l9.2,11.685a.942.942,0,0,1-.155,1.359A.837.837,0,0,1,40.508,36.714Z" transform="translate(-11.833 -22.7)" fill="#fff" />
		</g>
	</g>
</svg>
