<svg xmlns="http://www.w3.org/2000/svg" width="20.107" height="18.954" viewBox="0 0 20.107 18.954">
  <g id="Grupo_469" data-name="Grupo 469" transform="translate(0.25 0.25)">
    <path id="Trazado_256" data-name="Trazado 256" d="M11.534,17.877a.577.577,0,1,1-1.153,0V16.723a4.613,4.613,0,0,0-9.227,0v1.154a.577.577,0,1,1-1.153,0V16.723a5.767,5.767,0,0,1,11.534,0Zm-.869-7.384a.577.577,0,0,1-.794-.837,5.767,5.767,0,0,1,9.736,4.183v1.155a.577.577,0,1,1-1.153,0V13.839a4.614,4.614,0,0,0-7.789-3.346Zm-4.9-1.266A3.172,3.172,0,1,1,8.939,6.055,3.172,3.172,0,0,1,5.767,9.227Zm0-1.153A2.018,2.018,0,1,0,3.748,6.055,2.018,2.018,0,0,0,5.767,8.074Zm8.074-1.73a3.172,3.172,0,1,1,3.172-3.172,3.249,3.249,0,0,1-1.847,2.883A2.934,2.934,0,0,1,13.84,6.344Zm0-1.153a2.132,2.132,0,0,0,1.49-.657,1.888,1.888,0,0,0,.528-1.361A2.018,2.018,0,1,0,13.84,5.19Z" transform="translate(0 0)" fill="#fff" stroke="#fff" stroke-width="0.5"/>
  </g>
</svg>
