<svg xmlns="http://www.w3.org/2000/svg" width="17.993" height="17.993" viewBox="0 0 17.993 17.993">
  <g id="Grupo_345" data-name="Grupo 345" transform="translate(0 0)">
    <path id="Trazado_57" data-name="Trazado 57" d="M10,18.993a9,9,0,1,1,9-9A9,9,0,0,1,10,18.993Zm0-1.636A7.361,7.361,0,1,0,2.636,10,7.36,7.36,0,0,0,10,17.357Zm0-7.048,2.819,1.41a.817.817,0,0,1-.731,1.462L8.813,11.545a.817.817,0,0,1-.452-.731V5.907a.818.818,0,1,1,1.636,0Z" transform="translate(-1 -1)" fill="#fff"/>
  </g>
</svg>
