<svg xmlns="http://www.w3.org/2000/svg" width="9.45" height="12.674" viewBox="0 0 9.45 12.674">
  <g id="Unión_2" data-name="Unión 2" fill="none">
    <path d="M7.841,12.465l-3.116-2.4-3.115,2.4A1,1,0,0,1,0,11.672V2A2,2,0,0,1,2,0H7.45a2,2,0,0,1,2,2v9.672a1,1,0,0,1-1,1A.985.985,0,0,1,7.841,12.465Z" stroke="none"/>
    <path d="M 1.99999988079071 9.641427993774414 L 3.505389928817749 8.48307991027832 L 4.724889755249023 7.54472017288208 L 5.944509983062744 8.482930183410645 L 7.449999809265137 9.641059875488281 L 7.449999809265137 7.450200080871582 L 7.450200080871582 2.000000238418579 L 1.99999988079071 1.999800205230713 L 1.99999988079071 6.28380012512207 L 1.99999988079071 9.641427993774414 M 8.446089744567871 12.67416000366211 C 8.239680290222168 12.67418003082275 8.028360366821289 12.6092004776001 7.840799808502197 12.46500015258789 L 4.72504997253418 10.06815052032471 L 1.610099911689758 12.46500015258789 C 1.422575950622559 12.60917091369629 1.211111426353455 12.67415142059326 1.004632711410522 12.67415809631348 C 0.4867116212844849 12.67417430877686 -9.536743306171047e-08 12.26537895202637 -9.536743306171047e-08 11.67210006713867 L -9.536743306171047e-08 6.28380012512207 L -9.536743306171047e-08 1.999800205230713 C -9.536743306171047e-08 0.8955001831054688 0.8954998850822449 1.998901382194163e-07 1.999799847602844 1.998901382194163e-07 L 7.450200080871582 1.998901382194163e-07 C 8.554499626159668 1.998901382194163e-07 9.449999809265137 0.8955001831054688 9.449999809265137 1.999800205230713 L 9.449999809265137 7.450200080871582 L 9.449999809265137 11.67210006713867 C 9.449999809265137 12.26533031463623 8.963700294494629 12.67409992218018 8.446089744567871 12.67416000366211 Z" stroke="none" fill="#f8cfc9"/>
  </g>
</svg>
