<svg xmlns="http://www.w3.org/2000/svg" width="18.253" height="22.88" viewBox="0 0 18.253 22.88">
  <path id="Trazado_65" data-name="Trazado 65" d="M26.066,12.328a1.788,1.788,0,0,0-1.781-1.753,1.765,1.765,0,0,0-.779.183v-.3a1.964,1.964,0,0,0-2.931-1.716V8.654a2,2,0,1,0-4.008,0v.058a1.891,1.891,0,0,0-2.783,1.668v7.675a.248.248,0,0,1-.423.173l-.729-.807A3.757,3.757,0,0,0,9.6,16.191,1.31,1.31,0,0,0,8.522,18.1l3.647,7.048a7.356,7.356,0,0,0,4.879,3.7,7.221,7.221,0,0,0,1.593.178,6.633,6.633,0,0,0,4.02-1.325,8.651,8.651,0,0,0,3.429-6.182C26.176,18.843,26.093,13.941,26.066,12.328ZM25.1,21.5a7.614,7.614,0,0,1-3.038,5.413,5.788,5.788,0,0,1-4.789.967,6.345,6.345,0,0,1-4.211-3.189L9.4,17.631a.308.308,0,0,1,.133-.415.312.312,0,0,1,.118-.033,2.755,2.755,0,0,1,2.227.9l.729.807a1.252,1.252,0,0,0,2.167-.834V10.39a.89.89,0,0,1,1.781,0v5.889a.5.5,0,0,0,1,0V8.664a1,1,0,1,1,2,0v7.131a.5.5,0,1,0,1,0V10.462a.964.964,0,0,1,1.929,0v6.723a.5.5,0,0,0,1,0V12.361a.787.787,0,1,1,1.573-.015C25.092,13.951,25.174,18.836,25.1,21.5Z" transform="translate(-8.126 -6.4)" fill="#fff" stroke="#fff" stroke-miterlimit="10" stroke-width="0.5"/>
</svg>
