<svg xmlns="http://www.w3.org/2000/svg" width="14" height="24.191" viewBox="0 0 14 24.191">
  <path id="Trazado_64" data-name="Trazado 64" d="M22,14.108c0-3.534-5.66-10.935-6.305-11.766a.915.915,0,0,0-1.39,0C13.66,3.174,8,10.574,8,14.108a6.953,6.953,0,0,0,6.125,6.858v4.383a.875.875,0,0,0,1.75,0V20.966A6.953,6.953,0,0,0,22,14.108Zm-6.125,5.11v-7.7a.875.875,0,0,0-1.75,0v7.7a5.21,5.21,0,0,1-4.375-5.11c0-2.2,3.326-7.178,5.25-9.793,1.923,2.614,5.25,7.592,5.25,9.793A5.211,5.211,0,0,1,15.875,19.218Z" transform="translate(-8 -2.022)" fill="#fff"/>
</svg>
