<svg xmlns="http://www.w3.org/2000/svg" width="22.977" height="22.693" viewBox="0 0 22.977 22.693">
  <g id="Grupo_24" data-name="Grupo 24" transform="translate(-8.24 -8.6)">
    <path id="Trazado_61" data-name="Trazado 61" d="M16.927,52.247H12.072A1.924,1.924,0,0,1,10.4,49.354l2.176-3.768,1.194.716a.479.479,0,0,0,.716-.5l-.663-2.786a.458.458,0,0,0-.557-.345l-2.786.663a.463.463,0,0,0-.133.849l1.088.663-2.2,3.794a3.281,3.281,0,0,0,0,3.343,3.34,3.34,0,0,0,2.919,1.645h4.776a.7.7,0,0,0,.69-.69h0A.654.654,0,0,0,16.927,52.247Z" transform="translate(0 -24.653)" fill="#fff" stroke="#fff" stroke-width="1"/>
    <path id="Trazado_62" data-name="Trazado 62" d="M62.472,51.887,59.9,47.429a.676.676,0,0,0-1.088-.133h0a.715.715,0,0,0-.106.849L61.278,52.6a1.893,1.893,0,0,1,0,1.91,2.015,2.015,0,0,1-1.751.982h-3.9V54.2a.469.469,0,0,0-.8-.345l-2.017,2.017a.464.464,0,0,0,0,.663l2.017,2.017a.469.469,0,0,0,.8-.345V56.849h3.98a3.226,3.226,0,0,0,2.866-1.672A3.185,3.185,0,0,0,62.472,51.887Z" transform="translate(-32.252 -27.902)" fill="#fff" stroke="#fff" stroke-width="1"/>
    <path id="Trazado_63" data-name="Trazado 63" d="M37.383,11.435l1.884,3.237-1.061.5a.477.477,0,0,0,.027.876l2.68.982a.483.483,0,0,0,.61-.292l.982-2.68a.467.467,0,0,0-.637-.584l-1.353.637-1.937-3.343A3.311,3.311,0,0,0,35.712,9.1a3.226,3.226,0,0,0-2.866,1.672l-2.2,3.821a.726.726,0,0,0,.106.849h0a.7.7,0,0,0,1.088-.133l2.2-3.794a1.894,1.894,0,0,1,1.672-.955A1.728,1.728,0,0,1,37.383,11.435Z" transform="translate(-15.998)" fill="#fff" stroke="#fff" stroke-width="1"/>
  </g>
</svg>
