<svg xmlns="http://www.w3.org/2000/svg" width="30.203" height="32.521" viewBox="0 0 30.203 32.521">
  <path id="Trazado_56" data-name="Trazado 56" d="M17.646,0a1.02,1.02,0,0,0-1,1.029v9.64L14.94,8.613a1.014,1.014,0,1,0-1.559,1.3l3.5,4.223a1.013,1.013,0,0,0,1.428.138,1.175,1.175,0,0,0,.138-.138l3.5-4.223a1.015,1.015,0,1,0-1.486-1.382l-.073.084-1.708,2.062V1.027A1.022,1.022,0,0,0,17.677,0ZM1.268,5.749a1.019,1.019,0,1,0,.1,2.035H4.482L6.094,20.457l.012.1.564,3.831a1.007,1.007,0,0,0,1.006.868H27.167a1.015,1.015,0,1,0,0-2.031H8.551l-.265-1.8H27.747a1.016,1.016,0,0,0,1.006-.868l1.739-11.94a1.02,1.02,0,0,0-2.019-.292h0L26.868,19.4H8.01L6.386,6.636A1.015,1.015,0,0,0,5.38,5.749H1.268ZM12.459,26.123a3.2,3.2,0,1,0,3.194,3.194A3.216,3.216,0,0,0,12.459,26.123Zm10.4,0a3.2,3.2,0,1,0,3.2,3.194A3.209,3.209,0,0,0,22.856,26.123Zm-10.4,2.031a1.167,1.167,0,0,1,0,2.334,1.167,1.167,0,1,1,0-2.334Zm10.4,0A1.167,1.167,0,1,1,21.7,29.318,1.152,1.152,0,0,1,22.856,28.154Z" transform="translate(-0.3 0.002)" fill="#f8cfc9"/>
</svg>
