<svg xmlns="http://www.w3.org/2000/svg" width="30.512" height="32.855" viewBox="0 0 30.512 32.855">
  <g id="Grupo_20" data-name="Grupo 20" transform="translate(-0.3 0.002)">
    <path id="Trazado_56" data-name="Trazado 56" d="M17.824,0a1.031,1.031,0,0,0-1.008,1.039v9.739L15.09,8.7a1.025,1.025,0,1,0-1.575,1.311l3.537,4.266a1.023,1.023,0,0,0,1.443.14,1.187,1.187,0,0,0,.14-.14l3.537-4.266a1.025,1.025,0,1,0-1.5-1.4L20.6,8.7l-1.726,2.083V1.037A1.032,1.032,0,0,0,17.855,0ZM1.278,5.808a1.029,1.029,0,1,0,.1,2.056H4.525l1.629,12.8.012.1.57,3.871a1.018,1.018,0,0,0,1.016.877H27.442a1.026,1.026,0,1,0,0-2.052H8.636l-.268-1.819h19.66a1.027,1.027,0,0,0,1.016-.877L30.8,8.709a1.031,1.031,0,0,0-2.04-.295h0L27.14,19.6H8.089L6.448,6.7a1.025,1.025,0,0,0-1.016-.9H1.278ZM12.584,26.391a3.231,3.231,0,1,0,3.227,3.227A3.249,3.249,0,0,0,12.584,26.391Zm10.5,0a3.231,3.231,0,1,0,3.235,3.227A3.242,3.242,0,0,0,23.087,26.391Zm-10.5,2.052a1.179,1.179,0,0,1,0,2.358,1.179,1.179,0,1,1,0-2.358Zm10.5,0a1.179,1.179,0,1,1-1.171,1.175A1.164,1.164,0,0,1,23.087,28.443Z" transform="translate(0)" fill="#353c6b"/>
  </g>
</svg>
