<svg xmlns="http://www.w3.org/2000/svg" width="192.5" height="87.216" viewBox="0 0 192.5 87.216">
  <g id="LOGO_Pastel_de_La_Serre_" data-name="LOGO (Pastel de La Serre)" transform="translate(-40 -41)">
    <g id="Grupo_11" data-name="Grupo 11" transform="translate(-27.576 -580.904)">
      <g id="Grupo_1" data-name="Grupo 1" transform="translate(115.28 647.274)">
        <path id="Trazado_1" data-name="Trazado 1" d="M111.608,642.372c0,3.4-2.278,6.379-7.913,6.379a9.487,9.487,0,0,1-3.067-.427v8.355h2.947v.517H93.5v-.517h2.644V636.448H93.5v-.515h9.052C108.33,635.933,111.608,638.24,111.608,642.372Zm-4.844,0c0-3.645-1.17-5.924-4.982-5.924h-1.154v11.361a5.641,5.641,0,0,0,1.991.318C105.975,648.127,106.764,645.624,106.764,642.372Z" transform="translate(-93.504 -635.491)" fill="#f8cfc9"/>
        <path id="Trazado_2" data-name="Trazado 2" d="M118.264,652.634a3.7,3.7,0,0,1-3.3,1.823,2.7,2.7,0,0,1-2.916-2.37,4.545,4.545,0,0,1-4.208,2.37c-2.018,0-4.176-1.108-4.176-3.63,0-2.14,1.4-2.659,4.222-3.417,1.945-.532,4.222-1.185,4.222-3.873,0-2.066-1.29-3.251-3.507-3.251-2.28,0-3.569,1.306-3.6,2.673a1.678,1.678,0,0,1,1.656-1.321,1.712,1.712,0,0,1,1.731,1.776,1.8,1.8,0,0,1-1.838,1.825,2.007,2.007,0,0,1-2.005-2.189c0-2.05,1.945-3.387,5.043-3.387,4.07,0,6.257,2.309,6.257,6.3v6.548c0,.5.213.819.7.819s.971-.348,1.382-1.078ZM108,647.911a5.074,5.074,0,0,0-.5,2.477c0,2.2.942,3.006,2,3.006a2.862,2.862,0,0,0,2.522-2.233V645.5C111.521,646.665,110.077,647.333,108,647.911Z" transform="translate(-84.969 -632.359)" fill="#f8cfc9"/>
        <path id="Trazado_3" data-name="Trazado 3" d="M117.057,640.165c-1.639,0-2.627.881-2.627,1.884,0,1.474,1.7,2.2,3.934,2.945,2.719.9,5.1,1.823,5.1,4.74,0,2.977-2.462,4.723-5.133,4.723a5.87,5.87,0,0,1-3.873-1.472,2.378,2.378,0,0,0-1.566,1.29H112.5l-.305-5.269.488-.015a5.91,5.91,0,0,0,5.619,4.966c1.945,0,2.87-.988,2.87-2.233,0-1.549-1.4-2.05-4.116-2.977-3.069-1.032-4.662-2.416-4.662-4.752a4.324,4.324,0,0,1,4.616-4.331,5.257,5.257,0,0,1,3.448,1.231,1.987,1.987,0,0,0,1.625-1.231h.4l.274,4.892-.488.029A5.541,5.541,0,0,0,117.057,640.165Z" transform="translate(-77.805 -632.359)" fill="#f8cfc9"/>
        <path id="Trazado_4" data-name="Trazado 4" d="M128.719,654.35a4.2,4.2,0,0,1-3.814,2.11c-2.914,0-3.948-2.156-3.948-5.194V642.58h-2.1v-.519h2.1V639.8a8.087,8.087,0,0,0,3.829-2.522v4.784h3.584v.519h-3.584v10.782c0,1.61.622,2.158,1.488,2.158a2.571,2.571,0,0,0,2.05-1.442Z" transform="translate(-72.208 -634.362)" fill="#f8cfc9"/>
        <path id="Trazado_5" data-name="Trazado 5" d="M137.811,651.223a6.9,6.9,0,0,1-5.847,3.234,7.4,7.4,0,1,1-.075-14.794c4.555,0,6.044,3.6,5.937,6.715h-9.264c0,4.1,1.017,7.258,4.465,7.258a5.275,5.275,0,0,0,4.4-2.7Zm-4.055-5.361v-.486c0-2.568-.578-5.194-2.43-5.194s-2.642,2.429-2.749,5.68Z" transform="translate(-67.517 -632.359)" fill="#f8cfc9"/>
        <path id="Trazado_6" data-name="Trazado 6" d="M140.462,656.881v.517h-8.246v-.517h2.217V636.65h-2.217v-.515a33.56,33.56,0,0,0,6.044-.441v21.188Z" transform="translate(-60.992 -635.693)" fill="#f8cfc9"/>
      </g>
      <g id="Grupo_2" data-name="Grupo 2" transform="translate(115.372 672.896)">
        <path id="Trazado_7" data-name="Trazado 7" d="M110.109,670.882v.517h-5.15a3.105,3.105,0,0,0-1.017-1.763,4.7,4.7,0,0,1-4.191,2.156c-3.431,0-6.2-3.021-6.2-7.532,0-4.4,2.673-7.262,6.165-7.262a4.5,4.5,0,0,1,4.36,2.432v-8.78h-2.219v-.515a33.212,33.212,0,0,0,6.031-.442v21.188Zm-9.159-13.017c-2.217,0-3.28,2.688-3.28,6.471,0,3.509.881,6.622,3.3,6.622a3.093,3.093,0,0,0,2.914-2.234,23.079,23.079,0,0,0,.366-4.83,23.714,23.714,0,0,0-.167-3.3A3.4,3.4,0,0,0,100.95,657.865Z" transform="translate(-93.554 -649.556)" fill="#f8cfc9"/>
        <path id="Trazado_8" data-name="Trazado 8" d="M116.077,665.224a6.9,6.9,0,0,1-5.849,3.234,7.4,7.4,0,1,1-.075-14.794c4.555,0,6.046,3.6,5.939,6.716h-9.266c0,4.1,1.017,7.258,4.467,7.258a5.28,5.28,0,0,0,4.4-2.7Zm-4.055-5.361v-.486c0-2.568-.578-5.194-2.43-5.194s-2.644,2.429-2.749,5.68Z" transform="translate(-85.864 -646.222)" fill="#f8cfc9"/>
        <path id="Trazado_9" data-name="Trazado 9" d="M123.28,670.882v.517h-8.246v-.517h2.217V650.651h-2.217v-.515a33.549,33.549,0,0,0,6.044-.442v21.188Z" transform="translate(-75.514 -649.556)" fill="#f8cfc9"/>
        <path id="Trazado_10" data-name="Trazado 10" d="M134.521,666.635a3.691,3.691,0,0,1-3.3,1.823,2.7,2.7,0,0,1-2.916-2.37,4.55,4.55,0,0,1-4.208,2.37c-2.018,0-4.176-1.108-4.176-3.63,0-2.14,1.4-2.659,4.222-3.417,1.945-.532,4.222-1.185,4.222-3.873,0-2.066-1.292-3.251-3.509-3.251-2.278,0-3.569,1.306-3.6,2.673a1.675,1.675,0,0,1,1.656-1.321,1.712,1.712,0,0,1,1.731,1.776,1.8,1.8,0,0,1-1.838,1.825,2.007,2.007,0,0,1-2.005-2.189c0-2.05,1.945-3.387,5.043-3.387,4.07,0,6.257,2.309,6.257,6.3v6.548c0,.5.213.819.7.819s.971-.348,1.382-1.078Zm-10.266-4.723a5.073,5.073,0,0,0-.5,2.476c0,2.2.942,3.006,2,3.006a2.862,2.862,0,0,0,2.522-2.234V659.5C127.778,660.666,126.335,661.334,124.254,661.912Z" transform="translate(-71.406 -646.222)" fill="#f8cfc9"/>
        <path id="Trazado_11" data-name="Trazado 11" d="M135.726,653.282c0,2.033,1.7,2.885,6.031,4.738,4.313,1.838,7.093,3.387,7.093,7.319,0,4.086-3.176,6.7-7.245,6.7a7.682,7.682,0,0,1-5.347-2.02,2.869,2.869,0,0,0-2.248,1.976h-.471l-.35-8.248.517-.016c.381,4.679,3.843,7.777,7.777,7.777,2.688,0,4.6-1.518,4.6-3.888,0-2.474-1.884-3.433-6.318-5.148-3.569-1.382-6.3-2.993-6.3-6.684,0-3.507,2.537-6.167,6.439-6.167a7.291,7.291,0,0,1,4.861,1.794,2.68,2.68,0,0,0,2.294-1.794h.454l.274,7.944-.488.016c-.333-3.751-3.006-7.442-7.5-7.442C137.139,650.138,135.726,651.4,135.726,653.282Z" transform="translate(-60.266 -649.619)" fill="#f8cfc9"/>
        <path id="Trazado_12" data-name="Trazado 12" d="M156.033,665.224a6.893,6.893,0,0,1-5.847,3.234,7.4,7.4,0,1,1-.075-14.794c4.555,0,6.044,3.6,5.937,6.716h-9.264c0,4.1,1.017,7.258,4.465,7.258a5.283,5.283,0,0,0,4.4-2.7Zm-4.055-5.361v-.486c0-2.568-.576-5.194-2.43-5.194s-2.642,2.429-2.749,5.68Z" transform="translate(-52.306 -646.222)" fill="#f8cfc9"/>
        <path id="Trazado_13" data-name="Trazado 13" d="M161.081,658.21a1.872,1.872,0,0,1-1.913-1.851,1.8,1.8,0,0,1,1.792-1.838,1.832,1.832,0,0,1,1.534.835,1.921,1.921,0,0,0-1.928-1.2c-2.947,0-4.042,4.283-4.042,7.93v5.483h2.4v.517H150.5v-.517h2.2V654.6h-2.2v-.519a33.782,33.782,0,0,0,6.027-.44v5.026c.427-2.673,1.641-4.982,4.011-4.982a2.3,2.3,0,0,1,2.521,2.357A2,2,0,0,1,161.081,658.21Z" transform="translate(-45.731 -646.242)" fill="#f8cfc9"/>
        <path id="Trazado_14" data-name="Trazado 14" d="M168.2,658.21a1.872,1.872,0,0,1-1.913-1.851,1.8,1.8,0,0,1,1.792-1.838,1.832,1.832,0,0,1,1.534.835,1.924,1.924,0,0,0-1.93-1.2c-2.946,0-4.04,4.283-4.04,7.93v5.483h2.4v.517h-8.43v-.517h2.2V654.6h-2.2v-.519a33.79,33.79,0,0,0,6.029-.44v5.026c.427-2.673,1.641-4.982,4.011-4.982a2.305,2.305,0,0,1,2.521,2.357A2,2,0,0,1,168.2,658.21Z" transform="translate(-39.753 -646.242)" fill="#f8cfc9"/>
        <path id="Trazado_15" data-name="Trazado 15" d="M178.09,665.224a6.9,6.9,0,0,1-5.847,3.234,7.4,7.4,0,1,1-.075-14.794c4.555,0,6.044,3.6,5.939,6.716h-9.265c0,4.1,1.017,7.258,4.465,7.258a5.28,5.28,0,0,0,4.4-2.7Zm-4.055-5.361v-.486c0-2.568-.576-5.194-2.43-5.194s-2.642,2.429-2.749,5.68Z" transform="translate(-33.781 -646.222)" fill="#f8cfc9"/>
      </g>
      <g id="Grupo_9" data-name="Grupo 9" transform="translate(67.576 621.904)">
        <g id="Grupo_7" data-name="Grupo 7" transform="translate(5.797 12.187)">
          <path id="Trazado_16" data-name="Trazado 16" d="M77.518,656.673a.227.227,0,0,1-.23-.239,3.779,3.779,0,0,1,1.212-2.327v0a3.781,3.781,0,0,1,2.326-1.211.2.2,0,0,1,.171.068.227.227,0,0,1,.068.171,4.374,4.374,0,0,1-3.54,3.54Zm1.308-2.243h0a3.722,3.722,0,0,0-1.045,1.748,4.159,4.159,0,0,0,2.789-2.791A3.722,3.722,0,0,0,78.826,654.431Z" transform="translate(-65.216 -608.066)" fill="#f8cfc9"/>
          <path id="Trazado_17" data-name="Trazado 17" d="M77.583,653.578a.234.234,0,0,1-.164-.066.243.243,0,0,1-.066-.173,3.771,3.771,0,0,1,1.211-2.326v0a3.79,3.79,0,0,1,2.327-1.211c.048-.018.125.022.171.068a.23.23,0,0,1,.068.171,4.363,4.363,0,0,1-3.54,3.538Zm1.306-2.239a3.734,3.734,0,0,0-1.043,1.744,4.155,4.155,0,0,0,2.789-2.787,3.706,3.706,0,0,0-1.746,1.043Z" transform="translate(-65.162 -610.665)" fill="#f8cfc9"/>
          <path id="Trazado_18" data-name="Trazado 18" d="M77.583,650.527a.227.227,0,0,1-.164-.066.237.237,0,0,1-.066-.173,3.107,3.107,0,0,1,1-1.919h0a3.1,3.1,0,0,1,1.921-1,.213.213,0,0,1,.171.066.23.23,0,0,1,.068.171,3.59,3.59,0,0,1-2.92,2.92Zm2.425-2.657a3.088,3.088,0,0,0-1.332.823v0a3.042,3.042,0,0,0-.822,1.332,3.386,3.386,0,0,0,2.154-2.156Zm-1.5.661h0Z" transform="translate(-65.162 -612.705)" fill="#f8cfc9"/>
          <path id="Trazado_19" data-name="Trazado 19" d="M77.583,647.284a.234.234,0,0,1-.164-.066.24.24,0,0,1-.066-.173,3.111,3.111,0,0,1,1-1.923h0a3.126,3.126,0,0,1,1.921-1,.2.2,0,0,1,.171.068.23.23,0,0,1,.068.171,3.6,3.6,0,0,1-2.92,2.92Zm1.093-1.834a3.047,3.047,0,0,0-.822,1.334,3.078,3.078,0,0,0,1.334-.826,3.032,3.032,0,0,0,.821-1.33,3.054,3.054,0,0,0-1.332.823Z" transform="translate(-65.162 -615.43)" fill="#f8cfc9"/>
          <path id="Trazado_20" data-name="Trazado 20" d="M78.823,656.389h-.009a3.989,3.989,0,0,1-3.242-3.242.23.23,0,0,1,.068-.171.275.275,0,0,1,.171-.066,3.443,3.443,0,0,1,2.131,1.109h0a3.46,3.46,0,0,1,1.111,2.131.227.227,0,0,1-.068.171A.224.224,0,0,1,78.823,656.389Zm-2.754-2.982a3.792,3.792,0,0,0,2.486,2.486,3.372,3.372,0,0,0-.936-1.547v0A3.4,3.4,0,0,0,76.069,653.407Z" transform="translate(-66.658 -608.05)" fill="#f8cfc9"/>
          <path id="Trazado_21" data-name="Trazado 21" d="M78.823,653.574h-.009a3.994,3.994,0,0,1-3.242-3.242.237.237,0,0,1,.068-.173.254.254,0,0,1,.171-.066,3.445,3.445,0,0,1,2.131,1.111h0a3.459,3.459,0,0,1,1.111,2.13.23.23,0,0,1-.068.171A.224.224,0,0,1,78.823,653.574Zm-2.754-2.982a3.794,3.794,0,0,0,2.486,2.484,3.391,3.391,0,0,0-.936-1.547v0A3.389,3.389,0,0,0,76.069,650.592Z" transform="translate(-66.658 -610.416)" fill="#f8cfc9"/>
          <path id="Trazado_22" data-name="Trazado 22" d="M78.565,650.8h-.009a3.287,3.287,0,0,1-2.677-2.677.23.23,0,0,1,.068-.171.245.245,0,0,1,.169-.068,2.848,2.848,0,0,1,1.763.913v0a2.854,2.854,0,0,1,.916,1.763.234.234,0,0,1-.068.173A.23.23,0,0,1,78.565,650.8Zm-2.182-2.41a3.115,3.115,0,0,0,1.906,1.9,2.829,2.829,0,0,0-.734-1.172A2.788,2.788,0,0,0,76.383,648.387Z" transform="translate(-66.4 -612.274)" fill="#f8cfc9"/>
          <path id="Trazado_23" data-name="Trazado 23" d="M78.565,647.843h-.009a3.293,3.293,0,0,1-2.677-2.677.237.237,0,0,1,.068-.173.355.355,0,0,1,.171-.066,2.861,2.861,0,0,1,1.761.914h0A2.864,2.864,0,0,1,78.8,647.6a.234.234,0,0,1-.068.173A.229.229,0,0,1,78.565,647.843Zm-2.18-2.41a3.107,3.107,0,0,0,1.9,1.9,2.8,2.8,0,0,0-.734-1.168h0A2.829,2.829,0,0,0,76.385,645.433Z" transform="translate(-66.4 -614.755)" fill="#f8cfc9"/>
          <g id="Grupo_3" data-name="Grupo 3" transform="translate(12.164 16.304)">
            <line id="Línea_1" data-name="Línea 1" x1="0.036" y2="35.908" transform="translate(0.137 0.137)" fill="#f8cfc9"/>
            <path id="Trazado_24" data-name="Trazado 24" d="M77.476,673.57h0a.137.137,0,0,1-.138-.136l.037-35.908a.136.136,0,0,1,.136-.136h0a.136.136,0,0,1,.136.136l-.035,35.908A.136.136,0,0,1,77.476,673.57Z" transform="translate(-77.338 -637.389)" fill="#f8cfc9"/>
          </g>
          <g id="Grupo_4" data-name="Grupo 4">
            <path id="Trazado_25" data-name="Trazado 25" d="M75.007,635.122a2.381,2.381,0,0,0,1.569.322,1.252,1.252,0,0,0,.04,1.42.885.885,0,0,0,.649.245,1.983,1.983,0,0,0,.771-.21,2.387,2.387,0,0,0,.322,1.575.99.99,0,0,0,.7.419.885.885,0,0,0,.1.005,1.12,1.12,0,0,0,.613-.195,1.065,1.065,0,0,0,.71.19.994.994,0,0,0,.7-.419A2.387,2.387,0,0,0,81.5,636.9a1.983,1.983,0,0,0,.769.21.885.885,0,0,0,.651-.247,1.248,1.248,0,0,0,.04-1.419,2.392,2.392,0,0,0,1.569-.322,1.006,1.006,0,0,0,.421-.7,1.413,1.413,0,0,1,0-1.42,1.006,1.006,0,0,0-.421-.7,2.415,2.415,0,0,0-1.569-.322,1.035,1.035,0,0,0-1.461-1.461,2.384,2.384,0,0,0-.322-1.569.993.993,0,0,0-.7-.419,1.124,1.124,0,0,0-.712.189,1.077,1.077,0,0,0-.71-.189.989.989,0,0,0-.7.419,2.387,2.387,0,0,0-.322,1.571,1.251,1.251,0,0,0-1.42.039,1.23,1.23,0,0,0-.057,1.391,2.344,2.344,0,0,0-1.553.351,1.006,1.006,0,0,0-.421.7,1.426,1.426,0,0,1,0,1.42A1.006,1.006,0,0,0,75.007,635.122Zm1.934,1.417c-.191-.191-.123-.653.164-1.143.112-.026.21-.076.315-.11a3.154,3.154,0,0,0,.4-.14,2.75,2.75,0,0,0,.66-.427l-.156-.169.2.129a2.7,2.7,0,0,1,.716-.44,2.746,2.746,0,0,1-.429.7l-.02.022-.02.022-.037.039-.006.007a2.533,2.533,0,0,0-.4.624,3.241,3.241,0,0,0-.16.462c-.026.088-.068.167-.088.259C77.6,636.666,77.136,636.729,76.94,636.539Zm3.866,1.66a.543.543,0,0,1-.377.239.755.755,0,0,1-.517-.2.228.228,0,0,0-.294,0,.767.767,0,0,1-.513.2.547.547,0,0,1-.379-.239,2.134,2.134,0,0,1-.23-1.573c0-.02.013-.037.017-.057l0,0a2.693,2.693,0,0,1,.557-1.225l.04-.048.017-.017.018-.018a3.166,3.166,0,0,0,.368-.532c.037-.07.063-.145.1-.217a3.731,3.731,0,0,0,.156-.35,3.223,3.223,0,0,0,.158.353c.031.07.057.145.094.21a3.028,3.028,0,0,0,.368.535l.011.013.061.064a2.257,2.257,0,0,1,.342.543,3.271,3.271,0,0,1,.219.688v0c0,.02.015.037.018.057A2.125,2.125,0,0,1,80.806,638.2Zm1.786-1.662c-.193.2-.653.127-1.144-.162-.022-.094-.063-.171-.09-.261a3.58,3.58,0,0,0-.158-.462,2.618,2.618,0,0,0-.4-.629c-.017-.018-.035-.037-.07-.077l0,0c-.057-.066-.09-.156-.142-.228a2.646,2.646,0,0,1-.289-.477,2.625,2.625,0,0,1,.708.438l.066.057.018.018a2.624,2.624,0,0,0,.631.4,3.5,3.5,0,0,0,.4.138,3.244,3.244,0,0,0,.309.107C82.714,635.886,82.784,636.348,82.593,636.537Zm1.658-3.864a.544.544,0,0,1,.239.379.722.722,0,0,1-.2.515.228.228,0,0,0,0,.294.716.716,0,0,1,.2.511.54.54,0,0,1-.239.381,2.133,2.133,0,0,1-1.573.23c-.018,0-.037-.013-.057-.016l0,0a3.056,3.056,0,0,1-.686-.219,2.384,2.384,0,0,1-.57-.366l-.052-.046a2.979,2.979,0,0,0-.534-.37c-.055-.029-.118-.05-.175-.077a3.5,3.5,0,0,0-.386-.175,3.517,3.517,0,0,0,.361-.16c.066-.033.14-.055.2-.092a2.905,2.905,0,0,0,.532-.37l.077-.07a2.262,2.262,0,0,1,.539-.34,3.292,3.292,0,0,1,.69-.219l0,0c.02,0,.039-.013.059-.016A2.122,2.122,0,0,1,84.25,632.674Zm-1.658-1.787c.191.193.121.655-.164,1.144-.114.026-.212.076-.32.111a3.857,3.857,0,0,0-.4.138,2.81,2.81,0,0,0-.66.429l.156.169-.2-.129a2.7,2.7,0,0,1-.718.44c.028-.062.07-.1.1-.162a2.777,2.777,0,0,1,.337-.546l.048-.051.028-.031h0a2.54,2.54,0,0,0,.4-.631,3.813,3.813,0,0,0,.145-.423c.031-.1.075-.186.1-.291C81.939,630.766,82.4,630.7,82.593,630.887Zm-3.867-1.656a.543.543,0,0,1,.381-.241.79.79,0,0,1,.515.2.23.23,0,0,0,.294,0,.715.715,0,0,1,.513-.2.54.54,0,0,1,.377.241,2.118,2.118,0,0,1,.232,1.571c0,.02-.015.037-.018.057v0a3.243,3.243,0,0,1-.219.685,2.333,2.333,0,0,1-.372.578l-.013.013a.12.12,0,0,0-.029.031,3.171,3.171,0,0,0-.37.539c-.033.061-.057.131-.086.2a3.409,3.409,0,0,0-.164.364,3.622,3.622,0,0,0-.155-.344c-.035-.074-.061-.151-.1-.221a3,3,0,0,0-.313-.451c-.02-.026-.035-.059-.055-.083l-.009-.009,0-.005v0l-.057-.066a2.011,2.011,0,0,1-.2-.309,2.04,2.04,0,0,1-.145-.23,3.241,3.241,0,0,1-.219-.688v0c-.006-.02-.015-.037-.018-.057A2.128,2.128,0,0,1,78.725,629.231Zm-1.785,1.658c.193-.193.657-.123,1.144.164.02.094.064.173.092.263a3.557,3.557,0,0,0,.158.46,2.7,2.7,0,0,0,.232.362,2.484,2.484,0,0,0,.164.258l.006,0c.009.011.015.026.024.037l.04.042a2.748,2.748,0,0,1,.44.717,2.65,2.65,0,0,1-.707-.434l-.066-.059-.018-.017a2.569,2.569,0,0,0-.631-.4,3.428,3.428,0,0,0-.408-.142c-.1-.033-.2-.079-.305-.1C76.817,631.542,76.749,631.08,76.94,630.889Zm-1.7,2.677a.705.705,0,0,1-.2-.511.544.544,0,0,1,.239-.381,1.761,1.761,0,0,1,1.041-.28,2.949,2.949,0,0,1,.53.05c.02,0,.039.013.057.016l0,0a3.149,3.149,0,0,1,.686.219,2.385,2.385,0,0,1,.57.366l.051.046a2.984,2.984,0,0,0,.53.37c.066.035.14.059.208.092a3.473,3.473,0,0,0,.357.158,3.5,3.5,0,0,0-.366.165c-.066.031-.136.055-.2.088a3.04,3.04,0,0,0-.532.37l-.077.07a2.272,2.272,0,0,1-.539.34,3.3,3.3,0,0,1-.69.219l0,0c-.022,0-.039.015-.059.016a2.131,2.131,0,0,1-1.571-.23.541.541,0,0,1-.239-.379.725.725,0,0,1,.2-.515A.228.228,0,0,0,75.239,633.566Z" transform="translate(-67.491 -628.528)" fill="#f8cfc9"/>
            <path id="Trazado_26" data-name="Trazado 26" d="M88.17,636.925a.894.894,0,0,0-.377-.624,2.074,2.074,0,0,0-1.327-.285.913.913,0,0,0-1.282-1.284,2.075,2.075,0,0,0-.283-1.323.9.9,0,0,0-.627-.379.884.884,0,0,0-.616.16.928.928,0,0,0-.62-.16.9.9,0,0,0-.626.379,2.075,2.075,0,0,0-.283,1.323.913.913,0,0,0-1.282,1.284,2.083,2.083,0,0,0-1.327.285.894.894,0,0,0-.377.625,1.274,1.274,0,0,1,0,1.236.894.894,0,0,0,.377.624,2.077,2.077,0,0,0,1.328.283,1.08,1.08,0,0,0,.063,1.222.8.8,0,0,0,.583.219,1.688,1.688,0,0,0,.637-.164,2.082,2.082,0,0,0,.283,1.334.9.9,0,0,0,.626.375.757.757,0,0,0,.09.005.981.981,0,0,0,.528-.164.921.921,0,0,0,.618.158.9.9,0,0,0,.624-.375,2.082,2.082,0,0,0,.285-1.334,1.68,1.68,0,0,0,.637.164.807.807,0,0,0,.583-.219,1.086,1.086,0,0,0,.063-1.222,2.08,2.08,0,0,0,1.327-.281.9.9,0,0,0,.377-.627.946.946,0,0,0-.16-.616A.964.964,0,0,0,88.17,636.925Zm-2.092-1.8c.155.153.1.532-.14.938-.09.022-.166.061-.252.088a3.285,3.285,0,0,0-.366.127,2.347,2.347,0,0,0-.552.353l-.059.055a2.307,2.307,0,0,1-.539.346,2.48,2.48,0,0,1,.359-.556l.046-.05a2.328,2.328,0,0,0,.35-.545,2.967,2.967,0,0,0,.129-.374c.028-.085.064-.158.085-.245C85.546,635.026,85.925,634.966,86.078,635.122Zm-3.3-1.439a.449.449,0,0,1,.3-.2.74.74,0,0,1,.427.166l.147.12.145-.122a.683.683,0,0,1,.421-.164.456.456,0,0,1,.307.2,1.791,1.791,0,0,1,.193,1.3l-.017.088a2.758,2.758,0,0,1-.188.589l-.02.033a1.881,1.881,0,0,1-.267.425l-.051.055-.033.037a2.843,2.843,0,0,0-.443.767c-.013.031-.039.053-.05.086-.013-.033-.037-.053-.052-.086a2.779,2.779,0,0,0-.46-.786l-.064-.072a1.849,1.849,0,0,1-.291-.462,2.739,2.739,0,0,1-.188-.587l-.017-.088A1.8,1.8,0,0,1,82.781,633.683Zm-1.547,1.437c.156-.153.535-.094.94.142.02.088.059.164.086.248a3.191,3.191,0,0,0,.127.368,2.339,2.339,0,0,0,.35.547l.061.068a2.152,2.152,0,0,1,.34.535,2.35,2.35,0,0,1-.535-.344l-.064-.061a2.3,2.3,0,0,0-.545-.348,2.9,2.9,0,0,0-.374-.129c-.083-.028-.158-.066-.247-.086C81.138,635.654,81.079,635.276,81.234,635.12Zm-1.439,3.3a.441.441,0,0,1-.2-.305.594.594,0,0,1,.164-.423l.121-.147-.123-.147a.607.607,0,0,1-.162-.421.445.445,0,0,1,.2-.305,1.494,1.494,0,0,1,.885-.237,2.817,2.817,0,0,1,.4.037l0,0,.1.02a2.3,2.3,0,0,1,1.045.471l.081.123h.057a2.916,2.916,0,0,0,.81.458c-.031.011-.051.035-.083.048a2.869,2.869,0,0,0-.8.473l-.059.053a1.859,1.859,0,0,1-.458.291,2.661,2.661,0,0,1-.589.186l-.085.017A1.821,1.821,0,0,1,79.8,638.419Zm1.439,1.546c-.155-.155-.1-.532.14-.937.1-.024.182-.066.274-.1a2.823,2.823,0,0,0,.344-.119,2.274,2.274,0,0,0,.552-.353l.092-.081v0a2.255,2.255,0,0,1,.506-.315,2.447,2.447,0,0,1-.324.511l-.081.09a2.25,2.25,0,0,0-.35.55,2.991,2.991,0,0,0-.123.355c-.028.088-.068.167-.09.259C81.767,640.062,81.388,640.123,81.234,639.964Zm3.3,1.439a.449.449,0,0,1-.305.2.588.588,0,0,1-.423-.164l-.147-.12-.147.121a.552.552,0,0,1-.421.162.449.449,0,0,1-.305-.2,1.794,1.794,0,0,1-.2-1.3l.017-.088a2.9,2.9,0,0,1,.182-.578,2.065,2.065,0,0,1,.287-.462h.04l.052-.1a2.879,2.879,0,0,0,.445-.771c.013-.031.035-.051.048-.083.011.031.035.051.048.081a2.862,2.862,0,0,0,.445.773l.053.1h.04a2.323,2.323,0,0,1,.465,1.038l.017.088A1.785,1.785,0,0,1,84.531,641.4Zm1.547-1.439c-.153.158-.534.1-.94-.138-.02-.092-.061-.169-.088-.256a3.078,3.078,0,0,0-.125-.361,2.256,2.256,0,0,0-.351-.55l-.118-.14h0a2.285,2.285,0,0,1-.28-.46,2.239,2.239,0,0,1,.51.318l.09.083a2.285,2.285,0,0,0,.546.35,2.575,2.575,0,0,0,.353.123c.09.029.171.07.265.094C86.174,639.433,86.233,639.812,86.078,639.964Zm1.472-2.272a.59.59,0,0,1,.162.42.435.435,0,0,1-.2.307,1.818,1.818,0,0,1-1.3.193l-.083-.017a2.27,2.27,0,0,1-1.049-.477l-.007-.007-.024-.022-.037-.033a2.805,2.805,0,0,0-.767-.449c-.04-.016-.068-.05-.11-.064a2.832,2.832,0,0,0,.811-.458h.059l.046-.09.029-.028a2.25,2.25,0,0,1,1.049-.475l.094-.02a1.807,1.807,0,0,1,1.293.2.443.443,0,0,1,.2.305.6.6,0,0,1-.162.425l-.121.147Z" transform="translate(-63.663 -624.754)" fill="#f8cfc9"/>
            <path id="Trazado_27" data-name="Trazado 27" d="M77.993,640.292a1.08,1.08,0,0,0,.063-1.222,2.081,2.081,0,0,0,1.328-.283.894.894,0,0,0,.377-.626.972.972,0,0,0-.16-.616.985.985,0,0,0,.16-.62.894.894,0,0,0-.377-.624,2.068,2.068,0,0,0-1.327-.285.913.913,0,0,0-1.284-1.284,2.051,2.051,0,0,0-.283-1.323.882.882,0,0,0-1.244-.219.918.918,0,0,0-.618-.16.9.9,0,0,0-.626.379,2.063,2.063,0,0,0-.283,1.323.912.912,0,0,0-1.282,1.284,2.086,2.086,0,0,0-1.327.285.9.9,0,0,0-.379.625,1.274,1.274,0,0,1,0,1.236.907.907,0,0,0,.379.626,2.1,2.1,0,0,0,1.327.281,1.083,1.083,0,0,0,.063,1.222.8.8,0,0,0,.583.219,1.68,1.68,0,0,0,.637-.164A2.071,2.071,0,0,0,74,641.681a.9.9,0,0,0,.624.375.757.757,0,0,0,.09.005.981.981,0,0,0,.528-.164.922.922,0,0,0,.618.158.894.894,0,0,0,.624-.375,2.071,2.071,0,0,0,.285-1.334,1.68,1.68,0,0,0,.637.164A.8.8,0,0,0,77.993,640.292Zm1.115-3.623a.445.445,0,0,1,.2.3.6.6,0,0,1-.164.425l-.121.147.123.147a.606.606,0,0,1,.162.42.441.441,0,0,1-.2.307,1.8,1.8,0,0,1-1.3.193l-.085-.017a2.263,2.263,0,0,1-1.047-.477l-.009-.007-.024-.022-.037-.033a2.822,2.822,0,0,0-.765-.449c-.04-.016-.068-.05-.11-.064a2.847,2.847,0,0,0,.81-.458H76.6l.044-.09.029-.028a2.267,2.267,0,0,1,1.049-.475l.094-.02A1.806,1.806,0,0,1,79.108,636.669Zm-1.439-1.547c.155.154.1.532-.14.938-.09.022-.167.061-.252.088a3.047,3.047,0,0,0-.366.127,2.31,2.31,0,0,0-.552.353l-.061.055a2.228,2.228,0,0,1-.537.344,2.282,2.282,0,0,1,.361-.554l.044-.05a2.277,2.277,0,0,0,.348-.547,2.881,2.881,0,0,0,.129-.368c.028-.085.066-.16.086-.248C77.135,635.026,77.516,634.966,77.669,635.122Zm-3.3-1.439a.453.453,0,0,1,.305-.2.744.744,0,0,1,.425.166l.147.12.147-.122a.677.677,0,0,1,.419-.164.448.448,0,0,1,.307.2,1.8,1.8,0,0,1,.2,1.3l-.018.088a2.656,2.656,0,0,1-.186.589c-.013.028-.031.046-.046.072a1.8,1.8,0,0,1-.243.386l-.083.092a2.881,2.881,0,0,0-.449.775c-.011.031-.035.05-.046.081-.011-.031-.035-.051-.048-.083a2.829,2.829,0,0,0-.447-.775l-.02-.022a.823.823,0,0,0-.061-.066,1.867,1.867,0,0,1-.289-.46,2.566,2.566,0,0,1-.188-.589l-.017-.088A1.791,1.791,0,0,1,74.37,633.683Zm-1.545,1.437c.156-.153.534-.094.938.142.022.088.061.164.088.25a2.888,2.888,0,0,0,.129.368,2.26,2.26,0,0,0,.355.556l.052.057a2.221,2.221,0,0,1,.344.537,2.328,2.328,0,0,1-.537-.346l-.066-.061a2.266,2.266,0,0,0-.545-.348,2.976,2.976,0,0,0-.372-.129c-.085-.028-.158-.066-.248-.086C72.727,635.654,72.668,635.276,72.825,635.12Zm-1.439,3.3a.435.435,0,0,1-.2-.305.6.6,0,0,1,.162-.423l.121-.147-.123-.147a.6.6,0,0,1-.16-.421.442.442,0,0,1,.2-.307,1.506,1.506,0,0,1,.883-.236,2.793,2.793,0,0,1,.4.037l0,0,.1.02a2.3,2.3,0,0,1,1.045.471l.081.123h.057a2.942,2.942,0,0,0,.81.458c-.029.011-.052.035-.081.048a2.879,2.879,0,0,0-.806.473l-.057.053a1.872,1.872,0,0,1-.46.291,2.66,2.66,0,0,1-.589.186l-.085.017A1.792,1.792,0,0,1,71.386,638.419Zm1.439,1.546c-.156-.155-.1-.532.138-.937.1-.024.182-.066.276-.1a2.908,2.908,0,0,0,.342-.119,2.322,2.322,0,0,0,.554-.353l.09-.081v0a2.226,2.226,0,0,1,.506-.313,2.4,2.4,0,0,1-.328.515l-.075.085a2.24,2.24,0,0,0-.35.548,3.073,3.073,0,0,0-.125.361c-.029.086-.068.164-.09.256C73.358,640.062,72.977,640.123,72.825,639.964Zm3.3,1.439a.449.449,0,0,1-.305.2.6.6,0,0,1-.425-.164l-.147-.12-.145.121a.541.541,0,0,1-.421.162.445.445,0,0,1-.305-.2,1.776,1.776,0,0,1-.2-1.3l.017-.088a2.648,2.648,0,0,1,.182-.578,1.958,1.958,0,0,1,.285-.462h.04l.052-.1a2.811,2.811,0,0,0,.445-.771c.013-.031.037-.051.048-.083.011.031.035.051.048.081a2.818,2.818,0,0,0,.447.773l.052.1h.04a2.293,2.293,0,0,1,.465,1.038l.018.088A1.794,1.794,0,0,1,76.122,641.4Zm.607-1.577c-.022-.094-.063-.171-.09-.261a3.681,3.681,0,0,0-.123-.355,2.35,2.35,0,0,0-.351-.55l-.12-.138a2.307,2.307,0,0,1-.282-.462,2.2,2.2,0,0,1,.51.318l.092.083a2.273,2.273,0,0,0,.545.35,2.761,2.761,0,0,0,.353.123c.09.029.171.07.267.094.236.4.294.782.14.937S77.134,640.062,76.729,639.826Z" transform="translate(-70.727 -624.754)" fill="#f8cfc9"/>
            <path id="Trazado_28" data-name="Trazado 28" d="M77.274,640.276h0l.05,0A1.454,1.454,0,0,0,78.05,640c.454-.316.657-.778.453-1.03a.464.464,0,0,0-.333-.155.472.472,0,0,0-.155-.333.376.376,0,0,0-.237-.079,1.093,1.093,0,0,0-.793.53,1.469,1.469,0,0,0-.274.725l0,.051v0a1.558,1.558,0,0,1-.186.62l-.028.05-.029-.05a1.584,1.584,0,0,1-.184-.62v0l0-.051a1.47,1.47,0,0,0-.274-.725,1.1,1.1,0,0,0-.793-.53.373.373,0,0,0-.237.079.464.464,0,0,0-.155.331.473.473,0,0,0-.333.156c-.2.252,0,.714.451,1.03a1.461,1.461,0,0,0,.725.274l.052,0h0a1.581,1.581,0,0,1,.62.184l.05.029-.05.029a1.584,1.584,0,0,1-.62.184h0l-.052,0a1.462,1.462,0,0,0-.725.274c-.453.316-.655.776-.451,1.03a.467.467,0,0,0,.331.155.473.473,0,0,0,.156.333.373.373,0,0,0,.237.079,1.1,1.1,0,0,0,.793-.532,1.457,1.457,0,0,0,.274-.725l0-.05v0a1.584,1.584,0,0,1,.184-.62l.029-.05.028.05a1.558,1.558,0,0,1,.186.62v0l0,.05a1.456,1.456,0,0,0,.274.725,1.091,1.091,0,0,0,.793.532.376.376,0,0,0,.237-.079.534.534,0,0,1,.488-.488c.2-.254,0-.714-.453-1.03a1.456,1.456,0,0,0-.725-.274l-.05,0h0a1.575,1.575,0,0,1-.62-.184l-.05-.029.05-.029A1.572,1.572,0,0,1,77.274,640.276Zm-.287-.6a1.175,1.175,0,0,1,.224-.583.845.845,0,0,1,.567-.412l.063.017a.21.21,0,0,1,.055.145l.022.228.228.02a.208.208,0,0,1,.142.053.131.131,0,0,1,.017.1.906.906,0,0,1-.412.534,1.207,1.207,0,0,1-.637.226,1.668,1.668,0,0,0-.329.057A2.055,2.055,0,0,0,76.987,639.674ZM75.681,640a1.194,1.194,0,0,1-.583-.224.908.908,0,0,1-.41-.534.133.133,0,0,1,.015-.1.209.209,0,0,1,.145-.055l.228-.022.02-.228a.168.168,0,0,1,.118-.16.848.848,0,0,1,.567.412,1.213,1.213,0,0,1,.226.638,1.67,1.67,0,0,0,.057.329A1.782,1.782,0,0,0,75.681,640ZM76,641.3a1.2,1.2,0,0,1-.224.583.784.784,0,0,1-.594.4h-.035a.215.215,0,0,1-.055-.146l-.022-.228-.228-.02a.218.218,0,0,1-.144-.055.139.139,0,0,1-.015-.1.911.911,0,0,1,.41-.532,1.2,1.2,0,0,1,.638-.226,1.55,1.55,0,0,0,.329-.059A1.825,1.825,0,0,0,76,641.3Zm1.306-.324a1.168,1.168,0,0,1,.581.224.908.908,0,0,1,.412.532.139.139,0,0,1-.015.1.214.214,0,0,1-.145.055l-.228.022-.02.228a.17.17,0,0,1-.118.16.843.843,0,0,1-.567-.414,1.191,1.191,0,0,1-.226-.637,1.554,1.554,0,0,0-.059-.329A2.1,2.1,0,0,0,77.311,640.981Z" transform="translate(-67.634 -620.234)" fill="#f8cfc9"/>
            <path id="Trazado_29" data-name="Trazado 29" d="M80.026,638.957a.466.466,0,0,0,.333-.156c.2-.252,0-.714-.453-1.03a1.452,1.452,0,0,0-.725-.272l-.05,0h0a1.555,1.555,0,0,1-.62-.186l-.05-.028.05-.029a1.555,1.555,0,0,1,.62-.184h0l.05,0a1.45,1.45,0,0,0,.725-.272c.454-.316.657-.778.453-1.03a.466.466,0,0,0-.333-.156.479.479,0,0,0-.155-.333.376.376,0,0,0-.237-.079,1.1,1.1,0,0,0-.793.532,1.463,1.463,0,0,0-.274.725l0,.05v0a1.583,1.583,0,0,1-.184.62l-.029.048-.029-.048a1.583,1.583,0,0,1-.184-.62v0l0-.05a1.463,1.463,0,0,0-.274-.725,1.1,1.1,0,0,0-.793-.532.373.373,0,0,0-.237.079.538.538,0,0,1-.488.489c-.2.252,0,.714.451,1.03a1.463,1.463,0,0,0,.725.272l.052,0h0a1.555,1.555,0,0,1,.62.184l.05.029-.05.028a1.555,1.555,0,0,1-.62.186h0l-.052,0a1.465,1.465,0,0,0-.725.272c-.453.317-.655.778-.451,1.03a.462.462,0,0,0,.331.156.481.481,0,0,0,.156.333.373.373,0,0,0,.237.079,1.1,1.1,0,0,0,.793-.532,1.463,1.463,0,0,0,.274-.725l0-.05v0a1.566,1.566,0,0,1,.184-.62l.029-.05.029.05a1.566,1.566,0,0,1,.184.62v0l0,.05a1.463,1.463,0,0,0,.274.725,1.1,1.1,0,0,0,.793.532.377.377,0,0,0,.237-.079A.475.475,0,0,0,80.026,638.957Zm-1.183-2.491a1.175,1.175,0,0,1,.224-.581.853.853,0,0,1,.567-.414l.063.018a.209.209,0,0,1,.055.144l.022.23.228.02a.209.209,0,0,1,.142.053.129.129,0,0,1,.017.1.906.906,0,0,1-.412.533,1.206,1.206,0,0,1-.637.226,1.671,1.671,0,0,0-.329.057A2.047,2.047,0,0,0,78.843,636.466Zm-1.306.326a1.191,1.191,0,0,1-.583-.224.909.909,0,0,1-.41-.533.139.139,0,0,1,.015-.1.234.234,0,0,1,.145-.055l.228-.02.02-.23a.171.171,0,0,1,.118-.16.853.853,0,0,1,.567.414,1.212,1.212,0,0,1,.226.637,1.67,1.67,0,0,0,.057.329A1.922,1.922,0,0,0,77.537,636.792Zm.324,1.306a1.194,1.194,0,0,1-.224.581.787.787,0,0,1-.594.4l-.035,0a.205.205,0,0,1-.055-.144l-.022-.23-.228-.02a.208.208,0,0,1-.142-.053.129.129,0,0,1-.017-.1.919.919,0,0,1,.41-.534,1.213,1.213,0,0,1,.638-.226,1.672,1.672,0,0,0,.329-.057A1.807,1.807,0,0,0,77.86,638.1Zm1.891.835a.172.172,0,0,1-.118.16.853.853,0,0,1-.567-.414,1.2,1.2,0,0,1-.226-.637,1.553,1.553,0,0,0-.059-.329,2.108,2.108,0,0,0,.385.061,1.177,1.177,0,0,1,.583.223.919.919,0,0,1,.41.534.139.139,0,0,1-.015.1.233.233,0,0,1-.145.055l-.228.02Z" transform="translate(-66.076 -622.928)" fill="#f8cfc9"/>
            <path id="Trazado_30" data-name="Trazado 30" d="M81.012,640.276h0l.05,0a1.454,1.454,0,0,0,.725-.274c.454-.316.655-.778.453-1.03a.538.538,0,0,1-.489-.488.368.368,0,0,0-.236-.079,1.093,1.093,0,0,0-.793.53,1.469,1.469,0,0,0-.274.725l0,.051v0a1.559,1.559,0,0,1-.186.62l-.028.05-.029-.05a1.584,1.584,0,0,1-.184-.62v0l0-.051a1.469,1.469,0,0,0-.274-.725,1.1,1.1,0,0,0-.793-.53.369.369,0,0,0-.237.079.464.464,0,0,0-.155.331.473.473,0,0,0-.333.156c-.2.252,0,.714.451,1.03a1.461,1.461,0,0,0,.725.274l.052,0h0a1.581,1.581,0,0,1,.62.184l.05.029-.05.029a1.584,1.584,0,0,1-.62.184h0l-.052,0a1.462,1.462,0,0,0-.725.274c-.453.316-.655.776-.451,1.03a.467.467,0,0,0,.331.155.473.473,0,0,0,.156.333.369.369,0,0,0,.237.079,1.1,1.1,0,0,0,.793-.532,1.456,1.456,0,0,0,.274-.725l0-.05v0a1.584,1.584,0,0,1,.184-.62l.029-.05.028.05a1.558,1.558,0,0,1,.186.62v0l0,.05a1.456,1.456,0,0,0,.274.725,1.091,1.091,0,0,0,.793.532.368.368,0,0,0,.236-.079.466.466,0,0,0,.156-.333.472.472,0,0,0,.333-.155c.2-.254,0-.714-.453-1.03a1.456,1.456,0,0,0-.725-.274l-.05,0h0a1.567,1.567,0,0,1-.62-.184l-.05-.029.05-.029A1.564,1.564,0,0,1,81.012,640.276Zm-.287-.6a1.175,1.175,0,0,1,.224-.583.845.845,0,0,1,.567-.412l.063.017a.21.21,0,0,1,.055.145l.022.228.228.02a.208.208,0,0,1,.142.053.131.131,0,0,1,.017.1.914.914,0,0,1-.412.534,1.207,1.207,0,0,1-.637.226,1.668,1.668,0,0,0-.329.057A2.054,2.054,0,0,0,80.725,639.674ZM79.419,640a1.194,1.194,0,0,1-.583-.224.908.908,0,0,1-.41-.534.124.124,0,0,1,.015-.1.208.208,0,0,1,.144-.055l.23-.022.02-.228a.168.168,0,0,1,.118-.16.848.848,0,0,1,.567.412,1.213,1.213,0,0,1,.226.638,1.67,1.67,0,0,0,.057.329A1.782,1.782,0,0,0,79.419,640Zm.324,1.306a1.2,1.2,0,0,1-.224.583.784.784,0,0,1-.594.4h-.035a.215.215,0,0,1-.055-.146l-.022-.228-.228-.02a.218.218,0,0,1-.144-.055.13.13,0,0,1-.015-.1.911.911,0,0,1,.41-.532,1.2,1.2,0,0,1,.637-.226,1.566,1.566,0,0,0,.331-.059A1.825,1.825,0,0,0,79.742,641.3Zm1.306-.324a1.168,1.168,0,0,1,.581.224.916.916,0,0,1,.412.532.129.129,0,0,1-.017.1.205.205,0,0,1-.144.055l-.228.022-.02.228a.17.17,0,0,1-.118.16.843.843,0,0,1-.567-.414,1.209,1.209,0,0,1-.228-.637,1.44,1.44,0,0,0-.057-.329A2.1,2.1,0,0,0,81.049,640.981Z" transform="translate(-64.495 -620.234)" fill="#f8cfc9"/>
          </g>
          <g id="Grupo_5" data-name="Grupo 5" transform="translate(10.911 22.245)">
            <line id="Línea_2" data-name="Línea 2" x2="1.281" y2="1.281" transform="translate(0.133 0.134)" fill="#f8cfc9"/>
            <path id="Trazado_31" data-name="Trazado 31" d="M78.072,642.167a.131.131,0,0,1-.1-.039L76.7,640.848a.136.136,0,0,1,0-.19.13.13,0,0,1,.188,0l1.282,1.282a.133.133,0,0,1,0,.188A.127.127,0,0,1,78.072,642.167Z" transform="translate(-76.657 -640.618)" fill="#f8cfc9"/>
          </g>
          <g id="Grupo_6" data-name="Grupo 6" transform="translate(12.201 22.205)">
            <line id="Línea_3" data-name="Línea 3" x1="1.315" y2="1.315" transform="translate(0.136 0.137)" fill="#f8cfc9"/>
            <path id="Trazado_32" data-name="Trazado 32" d="M77.494,642.185a.135.135,0,0,1-.1-.039.141.141,0,0,1,0-.2l1.316-1.314a.133.133,0,0,1,.193,0,.136.136,0,0,1,0,.193l-1.314,1.316A.143.143,0,0,1,77.494,642.185Z" transform="translate(-77.358 -640.597)" fill="#f8cfc9"/>
          </g>
          <path id="Trazado_33" data-name="Trazado 33" d="M89.2,660.036a.231.231,0,0,0,0-.338,6.2,6.2,0,0,0-4.1-1.284c-.173,0-.335.026-.5.035.123-.11.252-.2.372-.322a6.218,6.218,0,0,0,2-3.814.23.23,0,0,0-.068-.171.2.2,0,0,0-.171-.066,6.21,6.21,0,0,0-3.812,1.994,7.245,7.245,0,0,0-1.764,2.723,7.222,7.222,0,0,0-1.764-2.723,6.215,6.215,0,0,0-3.812-1.994.237.237,0,0,0-.171.066.23.23,0,0,0-.068.171,6.214,6.214,0,0,0,1.994,3.814c.121.12.25.211.373.322-.169-.009-.329-.035-.5-.035a6.2,6.2,0,0,0-4.1,1.284.231.231,0,0,0,0,.338,6.211,6.211,0,0,0,4.1,1.282c.208,0,.4-.028.6-.042-.158.136-.32.258-.473.408a6.214,6.214,0,0,0-1.994,3.814.224.224,0,0,0,.068.169.217.217,0,0,0,.162.068h.007a6.2,6.2,0,0,0,3.814-1.994,7.254,7.254,0,0,0,1.764-2.721,7.254,7.254,0,0,0,1.764,2.721,6.191,6.191,0,0,0,3.812,1.994h.009a.217.217,0,0,0,.162-.068.224.224,0,0,0,.068-.169,6.217,6.217,0,0,0-2-3.814c-.151-.151-.313-.272-.471-.408.2.015.394.042.6.042A6.214,6.214,0,0,0,89.2,660.036Zm-7.731-.675a6.394,6.394,0,0,1,1.766-2.966,6.169,6.169,0,0,1,3.244-1.838,6.17,6.17,0,0,1-1.838,3.242,8.19,8.19,0,0,1-.808.707h0a5.666,5.666,0,0,0-2.53.971h0C81.358,659.44,81.407,659.4,81.466,659.36Zm-.158.357Zm-.331,0Zm-3.33-1.919a6.17,6.17,0,0,1-1.838-3.242,6.169,6.169,0,0,1,3.244,1.838,6.415,6.415,0,0,1,1.768,2.966,5.91,5.91,0,0,0-2.366-.855h0A7.985,7.985,0,0,1,77.647,657.8Zm-.454,3.06a6.168,6.168,0,0,1-3.591-.992,6.151,6.151,0,0,1,3.591-.993,6.3,6.3,0,0,1,3.444.9c.1-.02.2-.035.3-.053h0a5.4,5.4,0,0,0-2.484,1.023A7.841,7.841,0,0,1,77.192,660.858Zm1.86,2.557a6.162,6.162,0,0,1-3.244,1.84,6.992,6.992,0,0,1,5.082-5.082A6.172,6.172,0,0,1,79.052,663.416Zm7.424,1.84a7,7,0,0,1-5.082-5.082,6.992,6.992,0,0,1,5.082,5.082Zm-5.131-5.531h0c.1.018.2.033.305.053a6.284,6.284,0,0,1,3.442-.9,6.155,6.155,0,0,1,3.591.993,6.172,6.172,0,0,1-3.591.992,7.823,7.823,0,0,1-1.264-.11h0A5.414,5.414,0,0,0,81.345,659.725Z" transform="translate(-68.806 -607.075)" fill="#f8cfc9"/>
        </g>
        <g id="Grupo_8" data-name="Grupo 8">
          <path id="Trazado_34" data-name="Trazado 34" d="M75.639,660.185h6.6a7.489,7.489,0,0,1-.69-.46H76.329A7.744,7.744,0,0,1,75.639,660.185Z" transform="translate(-60.804 -590.14)" fill="#f8cfc9"/>
          <path id="Trazado_35" data-name="Trazado 35" d="M85.814,621.9a18.259,18.259,0,0,0-18.238,18.239v50.74a18.238,18.238,0,0,0,36.477,0v-50.74A18.259,18.259,0,0,0,85.814,621.9Zm0,83.667a14.39,14.39,0,0,1-5.532-1.1H91.349A14.4,14.4,0,0,1,85.814,705.571Zm6.489-1.555c-.009,0-.015-.009-.024-.009H79.305a14.664,14.664,0,0,1-1.834-1.106H94.158A14.4,14.4,0,0,1,92.3,704.017Zm2.469-1.575H76.856a14.678,14.678,0,0,1-1.258-1.106H96.031A14.4,14.4,0,0,1,94.773,702.442Zm1.663-1.549c-.015,0-.024-.016-.039-.016H75.178a14.312,14.312,0,0,1-.918-1.1H97.369A14.291,14.291,0,0,1,96.436,700.893Zm1.279-1.58h-23.8c-.247-.357-.475-.725-.688-1.1H98.4C98.187,698.587,97.959,698.955,97.715,699.312Zm.936-1.564H72.978c-.188-.361-.364-.727-.523-1.1H99.174C99.017,697.021,98.839,697.388,98.651,697.748Zm.692-1.564H72.286c-.136-.362-.261-.73-.37-1.106h27.8C99.6,695.454,99.479,695.822,99.343,696.184Zm.488-1.566H71.8c-.09-.361-.147-.734-.212-1.1h28.455C99.978,693.885,99.921,694.258,99.83,694.619Zm.451-9.387H89.426c-.09.077-.18.153-.269.232.167-.009.329-.035.5-.035a8.073,8.073,0,0,1,2.016.263h8.6v1.1H93.8c.013.029.037.053.037.086a.235.235,0,0,1-.074.169,3.545,3.545,0,0,1-.293.2h6.809v1.106H89.137c.132.11.267.213.392.338.039.039.068.083.1.121h10.647v1.1H90.524c.1.153.2.307.293.46h9.464v.719c0,.131-.022.256-.026.385H91.323a4.423,4.423,0,0,1,.1.46h8.8c-.024.37-.04.743-.094,1.106H71.5c-.052-.362-.07-.736-.094-1.106h8.587a4.016,4.016,0,0,1,.1-.46H71.373c0-.129-.026-.254-.026-.385v-.719H80.6c.088-.153.188-.307.291-.46H71.348v-1.1H81.785c.037-.039.064-.083.1-.121.127-.125.261-.228.392-.338H71.348v-1.106h6.6c-.094-.07-.208-.129-.291-.2a.228.228,0,0,1-.074-.169c0-.033.024-.057.037-.086h-6.27v-1.1h8.393a8.1,8.1,0,0,1,2.018-.263c.173,0,.333.026.5.035-.088-.079-.18-.154-.269-.232H71.348V639.92a14.467,14.467,0,0,1,28.934,0Z" transform="translate(-67.576 -621.904)" fill="#f8cfc9"/>
          <path id="Trazado_36" data-name="Trazado 36" d="M76.655,659.335h2.859c-.134-.151-.263-.3-.383-.46H77.038C76.918,659.031,76.789,659.184,76.655,659.335Z" transform="translate(-59.951 -590.854)" fill="#f8cfc9"/>
          <path id="Trazado_37" data-name="Trazado 37" d="M77.492,656.784h.1c.055-.153.12-.307.191-.46H77.3C77.375,656.477,77.437,656.631,77.492,656.784Z" transform="translate(-59.407 -592.996)" fill="#f8cfc9"/>
          <path id="Trazado_38" data-name="Trazado 38" d="M77.247,658.485h.681c-.079-.155-.144-.307-.206-.46h-.269C77.39,658.178,77.326,658.33,77.247,658.485Z" transform="translate(-59.454 -591.568)" fill="#f8cfc9"/>
        </g>
      </g>
      <g id="Grupo_10" data-name="Grupo 10" transform="translate(214.453 699.353)">
        <path id="Trazado_39" data-name="Trazado 39" d="M153.3,667.274a3.046,3.046,0,0,1-3.172,3.172h-2.717v-.156h.973v-6.132h-.973V664h2.46A3.211,3.211,0,0,1,153.3,667.274Zm-4.4-3.117v6.132h1.235c2.02,0,2.6-1.459,2.6-3,0-1.722-.769-3.135-2.795-3.135Z" transform="translate(-147.407 -663.999)" fill="#f8cfc9"/>
        <path id="Trazado_40" data-name="Trazado 40" d="M154.537,668.8a1.837,1.837,0,0,1-1.544.808,2.259,2.259,0,0,1-.018-4.476,1.676,1.676,0,0,1,1.566,1.856c0,.05,0,.1,0,.16h-2.984c-.006.088-.006.171-.006.252,0,1.5.71,2.055,1.455,2.055a1.676,1.676,0,0,0,1.422-.747Zm-.5-1.809c.006-.077.006-.151.006-.224,0-.97-.4-1.485-1.1-1.485s-1.3.589-1.387,1.709Z" transform="translate(-144.363 -663.044)" fill="#f8cfc9"/>
        <path id="Trazado_41" data-name="Trazado 41" d="M153.262,665.41v-.156a4.2,4.2,0,0,0,1.271-.125v1.023a1.447,1.447,0,0,1,1.395-1.008,2.031,2.031,0,0,1,1.851,2.2,2.087,2.087,0,0,1-1.878,2.272,1.4,1.4,0,0,1-1.367-.949v2.688h.8v.156h-2.072v-.156h.8V665.41Zm2.605,4.057c.9,0,1.391-.8,1.391-2.129,0-1.383-.534-2.029-1.367-2.029a1.4,1.4,0,0,0-1.363,1.26c-.013.131-.024.366-.024.637a7.519,7.519,0,0,0,.088,1.294A1.31,1.31,0,0,0,155.867,669.466Z" transform="translate(-142.49 -663.051)" fill="#f8cfc9"/>
        <path id="Trazado_42" data-name="Trazado 42" d="M160.7,669.341v.156a8.489,8.489,0,0,0-1.271.079v-1.021a1.674,1.674,0,0,1-1.385,1.063,1.364,1.364,0,0,1-1.3-1.446V665.41h-.8v-.156a4.194,4.194,0,0,0,1.271-.125v3.183c0,.7.34,1.108.889,1.108.773,0,1.225-.813,1.321-1.146V665.41h-.8v-.156a4.152,4.152,0,0,0,1.271-.125v4.213Z" transform="translate(-140.235 -663.051)" fill="#f8cfc9"/>
        <path id="Trazado_43" data-name="Trazado 43" d="M160.784,670.083v.156h-2.072v-.156h.8v-3.932h-.8v-.156a4.1,4.1,0,0,0,1.271-.125v4.213Zm-1.063-5.17a.325.325,0,0,1-.331-.337.331.331,0,0,1,.662,0A.328.328,0,0,1,159.72,664.913Z" transform="translate(-137.912 -663.793)" fill="#f8cfc9"/>
        <path id="Trazado_44" data-name="Trazado 44" d="M161.427,665.287a.833.833,0,0,0-.925.815c0,.535.478.7,1.312.973.708.234,1.284.454,1.284,1.223a1.277,1.277,0,0,1-1.336,1.314,1.6,1.6,0,0,1-1.131-.471.424.424,0,0,0-.324.414h-.12l-.077-1.51.147-.009a1.529,1.529,0,0,0,1.468,1.424.963.963,0,0,0,1.056-.92c0-.613-.508-.808-1.2-1.029-.638-.206-1.321-.478-1.321-1.279a1.078,1.078,0,0,1,1.159-1.1,1.491,1.491,0,0,1,1.056.432.39.39,0,0,0,.3-.432h.12l.074,1.441-.153,0A1.441,1.441,0,0,0,161.427,665.287Z" transform="translate(-136.738 -663.044)" fill="#f8cfc9"/>
        <path id="Trazado_45" data-name="Trazado 45" d="M164.97,664.888h.156v4.655h1.133v.156h-2.74v-.156h1.137v-4.066a2.045,2.045,0,0,1-1.073.475l-.015-.156A1.9,1.9,0,0,0,164.97,664.888Z" transform="translate(-133.874 -663.252)" fill="#f8cfc9"/>
        <path id="Trazado_46" data-name="Trazado 46" d="M168.957,669.142a2.088,2.088,0,0,1-2.062,2.04,1.417,1.417,0,0,1-1.562-1.244.435.435,0,0,1,.432-.491.354.354,0,0,1,.374.359.349.349,0,0,1-.35.353.319.319,0,0,1-.322-.28,1.237,1.237,0,0,0,1.371,1.137c1.023,0,1.6-.7,1.6-1.818,0-1.019-.5-1.659-1.314-1.659a1.586,1.586,0,0,0-1.367.655l-.147-.042.511-3.056h2.1c.4,0,.451-.055.475-.383h.142c-.031.7-.34.815-.883.815h-1.755l-.4,2.427a1.787,1.787,0,0,1,1.376-.567A1.738,1.738,0,0,1,168.957,669.142Z" transform="translate(-132.353 -663.399)" fill="#f8cfc9"/>
        <path id="Trazado_47" data-name="Trazado 47" d="M171.094,664.222c-1.97.469-2.473,1.994-2.716,3.5a1.492,1.492,0,0,1,1.483-1.179,1.909,1.909,0,0,1,1.812,1.915,1.97,1.97,0,0,1-1.882,2.031c-1.225,0-1.958-1.2-1.958-2.484a4.2,4.2,0,0,1,3.229-3.917Zm-2.734,3.84c-.006.092-.009.186-.009.272a2.653,2.653,0,0,0,.285,1.308,1.159,1.159,0,0,0,1.1.692c1.054,0,1.413-1.043,1.413-1.9,0-1.04-.543-1.726-1.339-1.726C168.977,666.71,168.553,667.308,168.36,668.062Z" transform="translate(-130.251 -663.923)" fill="#f8cfc9"/>
        <path id="Trazado_48" data-name="Trazado 48" d="M173.776,668.132l-.125,1.579h-3.319v-.193l.41-.337c1.529-1.251,2.408-1.934,2.408-2.924a1.125,1.125,0,0,0-1.222-1.211,1.137,1.137,0,0,0-1.233.892.319.319,0,0,1,.313-.252.325.325,0,0,1,.331.335.358.358,0,0,1-.383.348.4.4,0,0,1-.4-.432c0-.431.488-1.062,1.464-1.062a1.482,1.482,0,0,1,1.652,1.415c0,.843-.53,1.1-2.808,2.988h2.016c.686,0,.672-.1.754-1.161Z" transform="translate(-128.153 -663.263)" fill="#f8cfc9"/>
      </g>
    </g>
  </g>
</svg>
